<?xml version="1.0" encoding="utf-8"?>
<!-- Generator: Adobe Illustrator 18.1.1, SVG Export Plug-In . SVG Version: 6.00 Build 0)  -->
<svg version="1.1" id="Layer_1" xmlns="http://www.w3.org/2000/svg" xmlns:xlink="http://www.w3.org/1999/xlink" x="0px" y="0px"
	 viewBox="0 0 110 72" enable-background="new 0 0 110 72" xml:space="preserve">
<g>
	<g>
		
			<rect x="29.7" y="17.9" transform="matrix(0.5313 0.8472 -0.8472 0.5313 38.4198 -13.7826)" fill="#BFBFC0" width="4" height="19.8"/>
		
			<rect x="52.8" y="2.6" transform="matrix(0.5381 0.8429 -0.8429 0.5381 36.2097 -40.1899)" fill="#BFBFC0" width="4" height="20.8"/>
		<rect x="69.6" y="7" transform="matrix(0.9509 0.3095 -0.3095 0.9509 6.5964 -23.662)" fill="#BFBFC0" width="16.6" height="4"/>
	</g>
	<path fill="#BFBFC0" d="M26,71.7c-1.1,0-2-0.9-2-2V53.1c0-1.9-1.5-3.4-3.4-3.4h-0.1c-1.9,0-3.4,1.5-3.4,3.4v16.5c0,1.1-0.9,2-2,2
		s-2-0.9-2-2V53.1c0-4.1,3.3-7.4,7.4-7.4h0.1c4.1,0,7.4,3.3,7.4,7.4v16.5C28,70.8,27.1,71.7,26,71.7z"/>
	<path fill="#BFBFC0" d="M48.8,71.7c-1.1,0-2-0.9-2-2V41.4c0-1.9-1.5-3.4-3.4-3.4h-0.1c-1.9,0-3.4,1.5-3.4,3.4v28.3c0,1.1-0.9,2-2,2
		s-2-0.9-2-2V41.4c0-4.1,3.3-7.4,7.4-7.4h0.1c4.1,0,7.4,3.3,7.4,7.4v28.3C50.8,70.8,49.9,71.7,48.8,71.7z"/>
	<path fill="#BFBFC0" d="M94.3,71.7c-1.1,0-2-0.9-2-2v-35c0-1.9-1.5-3.4-3.4-3.4h-0.1c-1.9,0-3.4,1.5-3.4,3.4v35c0,1.1-0.9,2-2,2
		s-2-0.9-2-2v-35c0-4.1,3.3-7.4,7.4-7.4h0.1c4.1,0,7.4,3.3,7.4,7.4v35C96.3,70.8,95.4,71.7,94.3,71.7z"/>
	<path fill="#BFBFC0" d="M72,71.7c-1.1,0-2-0.9-2-2v-40c0-1.9-1.5-3.4-3.4-3.4h-0.1c-1.9,0-3.4,1.5-3.4,3.4v40c0,1.1-0.9,2-2,2
		s-2-0.9-2-2v-40c0-4.1,3.3-7.4,7.4-7.4h0.1c4.1,0,7.4,3.3,7.4,7.4v40C74,70.8,73.1,71.7,72,71.7z"/>
	<path fill="#BFBFC0" d="M107.2,71.7H0.5V2.6c0-1.1,0.9-2,2-2s2,0.9,2,2v65.1h102.8c1.1,0,2,0.9,2,2S108.3,71.7,107.2,71.7z"/>
	<path fill="#BFBFC0" d="M20.4,40.7c-3.2,0-5.8-2.6-5.8-5.8s2.6-5.8,5.8-5.8s5.8,2.6,5.8,5.8S23.6,40.7,20.4,40.7z M20.4,33
		c-1,0-1.8,0.8-1.8,1.8s0.8,1.8,1.8,1.8s1.8-0.8,1.8-1.8S21.4,33,20.4,33z"/>
	<path fill="#BFBFC0" d="M43.4,26.2c-3.2,0-5.8-2.6-5.8-5.8s2.6-5.8,5.8-5.8s5.8,2.6,5.8,5.8S46.6,26.2,43.4,26.2z M43.4,18.5
		c-1,0-1.8,0.8-1.8,1.8s0.8,1.8,1.8,1.8s1.8-0.8,1.8-1.8S44.4,18.5,43.4,18.5z"/>
	<path fill="#BFBFC0" d="M66.6,12.2c-3.2,0-5.8-2.6-5.8-5.8s2.6-5.8,5.8-5.8s5.8,2.6,5.8,5.8S69.8,12.2,66.6,12.2z M66.6,4.6
		c-1,0-1.8,0.8-1.8,1.8s0.8,1.8,1.8,1.8s1.8-0.8,1.8-1.8S67.6,4.6,66.6,4.6z"/>
	<path fill="#BFBFC0" d="M88.9,18.3c-3.2,0-5.8-2.6-5.8-5.8s2.6-5.8,5.8-5.8s5.8,2.6,5.8,5.8S92.1,18.3,88.9,18.3z M88.9,10.7
		c-1,0-1.8,0.8-1.8,1.8s0.8,1.8,1.8,1.8c1,0,1.8-0.8,1.8-1.8S89.9,10.7,88.9,10.7z"/>
</g>
</svg>
