<?xml version="1.0" encoding="utf-8"?>
<!-- Generator: Adobe Illustrator 18.1.1, SVG Export Plug-In . SVG Version: 6.00 Build 0)  -->
<svg version="1.1" id="Layer_1" xmlns="http://www.w3.org/2000/svg" xmlns:xlink="http://www.w3.org/1999/xlink" x="0px" y="0px"
	 viewBox="0 0 202.7 74" enable-background="new 0 0 202.7 74" xml:space="preserve">
<g>
	<path fill="none" d="M140.3,37.7c-5,0-9.1,4.1-9.1,9.1s4.1,9.1,9.1,9.1c5,0,9.1-4.1,9.1-9.1S145.4,37.7,140.3,37.7z"/>
	<path fill="none" d="M144.4,10.7c-0.2-0.4-0.5-0.8-0.8-1.1c-0.4-0.3-0.8-0.6-1.3-0.8c-0.5-0.2-1-0.3-1.5-0.3
		c-0.6,0-1.1,0.1-1.5,0.3c-0.5,0.2-0.9,0.4-1.3,0.8c-0.4,0.3-0.6,0.7-0.8,1.1c-0.2,0.4-0.3,0.9-0.3,1.4V17c0,0.5,0.1,0.9,0.3,1.4
		c0.2,0.4,0.5,0.8,0.8,1.1c0.4,0.3,0.8,0.6,1.3,0.8c0.5,0.2,1,0.3,1.5,0.3c0.5,0,0.9,0,1.4-0.2c0.5-0.2,0.8-0.4,1.2-0.7
		c0.4-0.3,0.7-0.7,0.9-1.1c0.2-0.3,0.5-1.3,0.5-2v-4.5C144.8,11.6,144.7,11.1,144.4,10.7z"/>
	<path fill="none" d="M86.8,47.7c0.4,4.6,4.3,8.2,9.1,8.2c5,0,9.1-4.1,9.1-9.1s-4.1-9.1-9.1-9.1c-4.8,0-8.8,3.8-9.1,8.6
		c0,0.1,0,0.1,0,0.2V47.7z"/>
	<path fill="none" d="M175.7,47.7c0.4,4.6,4.3,8.2,9.1,8.2c5,0,9.1-4.1,9.1-9.1s-4.1-9.1-9.1-9.1c-4.8,0-8.8,3.8-9.1,8.6
		c0,0.1,0,0.1,0,0.2V47.7z"/>
	<path fill="none" d="M194.9,12.1c0-0.5-0.1-0.9-0.3-1.4c-0.2-0.4-0.5-0.8-0.8-1.1c-0.4-0.3-0.8-0.6-1.3-0.8c-0.5-0.2-1-0.3-1.5-0.3
		c-0.6,0-1.1,0.1-1.5,0.3c-0.5,0.2-0.9,0.4-1.3,0.8c-0.4,0.3-0.6,0.7-0.8,1.1c-0.2,0.4-0.3,0.9-0.3,1.4v1.2h7.9V12.1z"/>
	<path fill="#FFFFFF" d="M78,46.4v0.4c0-0.3,0-0.5,0-0.8C78,46.2,78,46.3,78,46.4z"/>
	<path fill="#FFFFFF" d="M86.8,47.7v-1.3c0-0.1,0-0.1,0-0.2c0,0.2,0,0.4,0,0.6C86.8,47.1,86.8,47.4,86.8,47.7z"/>
	<path fill="#FFFFFF" d="M95.9,28.9c-9.6,0-17.5,7.6-17.9,17.1c0,0.3,0,0.5,0,0.8v22.8c0,2.4,2,4.4,4.4,4.4c2.4,0,4.4-2,4.4-4.4
		v-7.3c2.7,1.6,5.8,2.5,9.1,2.5c9.9,0,17.9-8,17.9-17.9S105.8,28.9,95.9,28.9z M95.9,56c-4.7,0-8.6-3.6-9.1-8.2c0-0.3,0-0.6,0-0.9
		c0-0.2,0-0.4,0-0.6c0.3-4.8,4.2-8.6,9.1-8.6c5,0,9.1,4.1,9.1,9.1S100.9,56,95.9,56z"/>
	<path fill="#FFFFFF" d="M140.3,28.9c-9.9,0-17.9,8-17.9,17.9s8,17.9,17.9,17.9s17.9-8,17.9-17.9S150.2,28.9,140.3,28.9z M140.3,56
		c-5,0-9.1-4.1-9.1-9.1s4.1-9.1,9.1-9.1c5,0,9.1,4.1,9.1,9.1S145.4,56,140.3,56z"/>
	<path fill="#FFFFFF" d="M166.9,46.4v0.4c0-0.3,0-0.5,0-0.8C166.9,46.2,166.9,46.3,166.9,46.4z"/>
	<path fill="#FFFFFF" d="M175.7,47.7v-1.3c0-0.1,0-0.1,0-0.2c0,0.2,0,0.4,0,0.6C175.7,47.1,175.7,47.4,175.7,47.7z"/>
	<path fill="#FFFFFF" d="M184.8,28.9c-9.6,0-17.5,7.6-17.9,17.1c0,0.3,0,0.5,0,0.8v22.8c0,2.4,2,4.4,4.4,4.4s4.4-2,4.4-4.4v-7.3
		c2.7,1.6,5.8,2.5,9.1,2.5c9.9,0,17.9-8,17.9-17.9S194.7,28.9,184.8,28.9z M184.8,56c-4.7,0-8.6-3.6-9.1-8.2c0-0.3,0-0.6,0-0.9
		c0-0.2,0-0.4,0-0.6c0.3-4.8,4.2-8.6,9.1-8.6c5,0,9.1,4.1,9.1,9.1S189.8,56,184.8,56z"/>
	<path fill="#FFFFFF" d="M87.8,20c-0.4,0.2-0.8,0.3-1.3,0.4c-0.5,0.1-1,0.1-1.5,0.1c-0.8,0-1.6-0.2-2.4-0.6
		c-0.8-0.4-1.3-0.9-1.7-1.6c-0.1-0.3-0.3-0.5-0.5-0.6c-0.2-0.1-0.5-0.2-0.8-0.2c-0.4,0-0.8,0.1-1,0.4c-0.3,0.3-0.4,0.6-0.4,0.9
		c0,0.2,0,0.3,0.1,0.5c0.5,0.9,1,1.6,1.7,2.1c0.7,0.5,1.3,0.9,2,1.1c0.7,0.3,1.2,0.4,1.8,0.5c0.5,0.1,0.9,0.1,1.1,0.1
		c0.9,0,1.8-0.1,2.7-0.3c0.8-0.2,1.6-0.5,2.2-1c0.6-0.4,1.1-1,1.5-1.6c0.4-0.6,0.5-1.4,0.5-2.3c0-0.8-0.2-1.6-0.5-2.2
		c-0.4-0.6-0.9-1.2-1.5-1.6c-0.6-0.4-1.3-0.8-2.2-1c-0.8-0.2-1.7-0.3-2.6-0.3c-1.1,0-2-0.2-2.6-0.5c-0.6-0.3-0.9-0.9-0.9-1.7
		c0-0.6,0.3-1.1,1-1.6c0.7-0.4,1.5-0.6,2.6-0.6c0.8,0,1.4,0.1,1.9,0.4c0.5,0.2,1,0.6,1.4,1.1c0.3,0.4,0.7,0.5,1.2,0.5
		c0.4,0,0.7-0.1,1-0.4c0.3-0.3,0.4-0.5,0.4-0.9c0-0.2-0.1-0.5-0.3-0.8c-0.4-0.6-1-1.1-1.6-1.5c-0.6-0.4-1.2-0.6-1.8-0.8
		C86.5,6,85.8,5.9,85,5.9c-0.9,0-1.8,0.1-2.6,0.3c-0.8,0.2-1.5,0.6-2,1c-0.6,0.4-1,0.9-1.3,1.5c-0.3,0.6-0.5,1.2-0.5,2
		c0,0.9,0.2,1.7,0.5,2.3c0.3,0.6,0.8,1.1,1.3,1.5c0.6,0.4,1.2,0.6,2,0.8c0.8,0.2,1.7,0.2,2.6,0.2c1.1,0,2,0.2,2.8,0.5
		c0.8,0.4,1.1,1,1.1,2c0,0.5-0.1,0.9-0.3,1.2C88.4,19.6,88.2,19.8,87.8,20z"/>
	<path fill="#FFFFFF" d="M117.6,7.7c-0.6-0.6-1.3-1-2.2-1.3c-0.8-0.3-1.7-0.5-2.6-0.5c-0.7,0-1.4,0.1-2.1,0.3
		c-0.7,0.2-1.3,0.5-1.8,0.9V1.3c0-0.4-0.1-0.7-0.4-0.9c-0.3-0.3-0.6-0.4-1-0.4c-0.4,0-0.7,0.1-1,0.4c-0.3,0.3-0.4,0.6-0.4,0.9v10.5
		v10c0,0.4,0.1,0.7,0.4,0.9c0.3,0.3,0.6,0.4,1,0.4c0.4,0,0.7-0.1,1-0.4c0.3-0.3,0.4-0.6,0.4-0.9v-9.9c0-0.5,0.1-0.9,0.3-1.3
		s0.5-0.8,0.8-1.1c0.4-0.3,0.8-0.6,1.2-0.7c0.5-0.2,1-0.3,1.5-0.3c0.5,0,1,0.1,1.5,0.3c0.5,0.2,0.9,0.4,1.3,0.8
		c0.4,0.3,0.6,0.7,0.8,1.1c0.2,0.4,0.3,0.9,0.3,1.4v9.8c0,0.4,0.1,0.7,0.4,0.9c0.3,0.3,0.6,0.4,1,0.4c0.4,0,0.7-0.1,1-0.4
		c0.3-0.3,0.4-0.6,0.4-0.9v-9.8c0-0.8-0.2-1.6-0.5-2.4C118.7,8.9,118.2,8.2,117.6,7.7z"/>
	<path fill="#FFFFFF" d="M168.9,8.5c0.7,0,1.4,0.2,2,0.5c0.3,0.2,0.5,0.2,0.9,0.2c0.4,0,0.7-0.1,1-0.4c0.3-0.2,0.4-0.6,0.4-0.9
		c0-0.5-0.2-0.9-0.6-1.1c-0.4-0.3-0.9-0.5-1.4-0.6c-0.5-0.1-1.2-0.2-2.1-0.3c-1.6,0-3.2,0.6-4.1,1.4c0-0.3-0.2-0.8-0.5-1
		c-0.3-0.2-0.6-0.3-0.9-0.3c-0.4,0-0.7,0.1-1,0.4c-0.3,0.3-0.4,0.6-0.4,0.9v4.5v10c0,0.4,0.1,0.7,0.4,0.9c0.3,0.3,0.6,0.4,1,0.4
		c0.4,0,0.7-0.1,1-0.4c0.3-0.3,0.4-0.6,0.4-0.9v-9.9c0-0.5,0.1-0.9,0.3-1.3c0.2-0.4,0.5-0.8,0.8-1.1c0.4-0.3,0.8-0.6,1.2-0.7
		C167.8,8.6,168.4,8.5,168.9,8.5z"/>
	<path fill="#FFFFFF" d="M145.3,22.7c0.3,0.2,0.6,0.3,0.9,0.3C145.8,23,145.5,22.9,145.3,22.7C145.2,22.7,145.2,22.7,145.3,22.7z"/>
	<path fill="#FFFFFF" d="M147.4,22.4C147.4,22.4,147.4,22.4,147.4,22.4C147.4,22.4,147.4,22.4,147.4,22.4z"/>
	<path fill="#FFFFFF" d="M147.1,9.7c0.4,0.8,0.5,1.6,0.5,2.4v-0.1l0-4.6c0-0.3-0.2-0.8-0.5-1c-0.3-0.2-0.6-0.3-0.9-0.3
		c-0.4,0-0.7,0.1-1,0.4c-0.2,0.2-0.3,0.4-0.4,0.7c0.3,0.2,0.6,0.4,0.8,0.6C146.2,8.2,146.7,8.9,147.1,9.7z"/>
	<path fill="#FFFFFF" d="M146.2,23c0.4,0,0.7-0.1,1-0.4c0.1-0.1,0.1-0.1,0.1-0.2c0,0.1-0.1,0.1-0.2,0.2
		C146.9,22.9,146.6,23,146.2,23z"/>
	<path fill="#FFFFFF" d="M147.6,21.7v-0.2c0,0.3-0.1,0.6-0.2,0.8C147.5,22.2,147.6,22,147.6,21.7z"/>
	<path fill="#FFFFFF" d="M144.8,21.1v0.6c0,0.4,0.1,0.7,0.4,0.9c0,0,0,0,0,0C144.9,22.3,144.8,21.7,144.8,21.1
		C144.8,21.1,144.8,21.1,144.8,21.1z"/>
	<path fill="#FFFFFF" d="M147.1,9.7c-0.4-0.8-0.9-1.4-1.5-2c-0.2-0.2-0.5-0.4-0.8-0.6c-0.4-0.3-0.9-0.5-1.4-0.7
		c-0.8-0.3-1.7-0.5-2.6-0.5c-1,0-1.8,0.2-2.7,0.5c-0.8,0.3-1.5,0.8-2.2,1.3c-0.6,0.6-1.1,1.2-1.5,2c-0.4,0.8-0.5,1.6-0.5,2.4V17
		c0,0.8,0.2,1.6,0.5,2.4c0.4,0.8,0.9,1.4,1.5,2c0.6,0.6,1.3,1,2.2,1.3c0.8,0.3,1.7,0.5,2.6,0.5c1.7,0,3.4-0.9,4-2c0,0,0,0,0,0
		c0,0.5,0.1,1.2,0.4,1.5c0.3,0.2,0.6,0.4,1,0.4c0.4,0,0.7-0.1,1-0.4c0.1,0,0.1-0.1,0.2-0.2c0,0,0,0,0-0.1c0.2-0.3,0.2-0.6,0.2-0.8
		v-9.5C147.6,11.2,147.4,10.4,147.1,9.7z M144.8,16.5c0,0.7-0.3,1.7-0.5,2c-0.2,0.4-0.5,0.8-0.9,1.1c-0.4,0.3-0.7,0.5-1.2,0.7
		c-0.5,0.2-0.9,0.2-1.4,0.2c-0.5,0-1-0.1-1.5-0.3c-0.5-0.2-0.9-0.4-1.3-0.8c-0.4-0.3-0.6-0.7-0.8-1.1c-0.2-0.4-0.3-0.9-0.3-1.4v-4.9
		c0-0.5,0.1-0.9,0.3-1.4c0.2-0.4,0.5-0.8,0.8-1.1c0.4-0.3,0.8-0.6,1.3-0.8c0.5-0.2,1-0.3,1.5-0.3c0.5,0,1,0.1,1.5,0.3
		c0.5,0.2,0.9,0.4,1.3,0.8c0.4,0.3,0.6,0.7,0.8,1.1c0.2,0.4,0.3,0.9,0.3,1.4V16.5z"/>
	<path fill="#FFFFFF" d="M186.1,21.3c0.6,0.6,1.3,1,2.2,1.3c0.8,0.3,1.7,0.5,2.6,0.5c1.4,0,2.7-0.3,3.8-1s1.9-1.6,2.4-2.7l0.1-0.1
		c0.1-0.2,0.1-0.3,0.1-0.5c0-0.3-0.1-0.6-0.4-0.9c-0.3-0.3-0.6-0.4-1-0.4c-0.3,0-0.6,0.1-0.8,0.2c-0.2,0.1-0.4,0.3-0.5,0.6l0,0.1
		c-0.3,0.6-0.8,1.1-1.5,1.5c-0.6,0.4-1.4,0.6-2.2,0.6c-0.5,0-1-0.1-1.5-0.3c-0.5-0.2-0.9-0.4-1.3-0.8c-0.4-0.3-0.6-0.7-0.8-1.1
		c-0.2-0.4-0.3-0.9-0.3-1.4v-1.2h9.3c0.4,0,0.7-0.1,1-0.4c0.3-0.3,0.4-0.6,0.4-0.9v-2.5c0-0.8-0.2-1.6-0.5-2.4
		c-0.4-0.8-0.9-1.4-1.5-2c-0.6-0.6-1.3-1-2.2-1.3c-0.8-0.3-1.7-0.5-2.6-0.5c-1,0-1.8,0.2-2.7,0.5c-0.8,0.3-1.5,0.8-2.2,1.3
		c-0.6,0.6-1.1,1.2-1.5,2c-0.4,0.8-0.5,1.6-0.5,2.4V17c0,0.8,0.2,1.6,0.5,2.4S185.5,20.8,186.1,21.3z M187,12.1
		c0-0.5,0.1-0.9,0.3-1.4c0.2-0.4,0.5-0.8,0.8-1.1c0.4-0.3,0.8-0.6,1.3-0.8c0.5-0.2,1-0.3,1.5-0.3c0.5,0,1,0.1,1.5,0.3
		c0.5,0.2,0.9,0.4,1.3,0.8c0.4,0.3,0.6,0.7,0.8,1.1c0.2,0.4,0.3,0.9,0.3,1.4v1.2H187V12.1z"/>
	<path fill="#FFFFFF" d="M37,8C19.3,8-2.1,30,0.2,46.1c2.4,16.9,18.2,25.7,36,24.5C54,69.3,68.6,56.5,69.7,40.3C70.8,24,54.8,8,37,8
		z M25.3,38.5c0,1.1-0.2,2.2-0.7,3.2L38,49.5c1.5-1.8,3.7-2.9,6.2-2.9c4.5,0,8.2,3.7,8.2,8.2s-3.7,8.2-8.2,8.2
		c-4.5,0-8.2-3.7-8.2-8.2c0-1.1,0.2-2.2,0.6-3.1l-13.4-7.8c-1.5,1.6-3.6,2.7-5.9,2.7c-4.4,0-7.9-3.5-7.9-7.9s3.5-7.9,7.9-7.9
		c2.6,0,4.9,1.3,6.4,3.2l13-7.5c-0.4-1-0.6-2-0.6-3.1c0-4.5,3.7-8.2,8.2-8.2c4.5,0,8.2,3.7,8.2,8.2c0,4.5-3.7,8.2-8.2,8.2
		c-2.5,0-4.8-1.1-6.3-2.9L24.9,36C25.2,36.8,25.3,37.6,25.3,38.5z"/>
</g>
</svg>
